<?xml version="1.0" encoding="UTF-8" standalone="no"?>
<!DOCTYPE svg PUBLIC "-//W3C//DTD SVG 1.1//EN" "http://www.w3.org/Graphics/SVG/1.1/DTD/svg11.dtd">
<svg width="100%" height="100%" viewBox="0 0 3852 3916" version="1.1" xmlns="http://www.w3.org/2000/svg" xmlns:xlink="http://www.w3.org/1999/xlink" xml:space="preserve" xmlns:serif="http://www.serif.com/" style="fill-rule:evenodd;clip-rule:evenodd;stroke-linecap:round;stroke-miterlimit:3;">
    <g transform="matrix(1,0,0,1,-1667.18,-832.117)">
        <g transform="matrix(1.11368,0,0,1.11368,-567.372,-1825.71)">
            <path d="M8622.07,3448.04L8622.07,4937.27C8622.07,5290.56 8335.25,5577.38 7981.96,5577.38C7981.96,5577.38 6492.73,5577.38 6492.73,5577.38C6139.44,5577.38 5852.62,5290.56 5852.62,4937.27C5852.62,4937.27 5852.62,3448.04 5852.62,3448.04C5852.62,3094.75 6139.44,2807.93 6492.73,2807.93C6492.73,2807.93 7981.96,2807.93 7981.96,2807.93C8335.25,2807.93 8622.07,3094.75 8622.07,3448.04Z" style="fill:none;stroke:black;stroke-width:245.53px;"/>
        </g>
        <g transform="matrix(0.900751,0,0,0.844726,458.956,196.337)">
            <path d="M3486.03,1264.46L1821.33,1264.46L1821.33,4358.28C1821.33,4644.21 2038.71,4876.01 2306.86,4876.01L3000.87,4876.01C3129.55,4876.01 3252.95,4821.5 3343.93,4724.48C3434.92,4627.46 3486.03,4495.88 3486.03,4358.67L3486.03,1264.46Z" style="fill:none;stroke:black;stroke-width:313.15px;"/>
        </g>
        <g transform="matrix(5.51551e-17,-0.919893,0.827148,5.17246e-17,3425.37,5034.32)">
            <path d="M4098.15,-1602.91L2433.45,-1602.91L2433.45,1479.91C2433.45,1771.92 2646.3,2008.64 2908.87,2008.64L3623.08,2008.64C3885.45,2008.64 4098.15,1772.09 4098.15,1480.31L4098.15,-1602.91Z" style="fill:none;stroke:black;stroke-width:312.59px;"/>
        </g>
    </g>
</svg>
