<?xml version="1.0" encoding="UTF-8" standalone="no"?>
<!DOCTYPE svg PUBLIC "-//W3C//DTD SVG 1.1//EN" "http://www.w3.org/Graphics/SVG/1.1/DTD/svg11.dtd">
<svg width="100%" height="100%" viewBox="0 0 4286 4183" version="1.1" xmlns="http://www.w3.org/2000/svg" xmlns:xlink="http://www.w3.org/1999/xlink" xml:space="preserve" xmlns:serif="http://www.serif.com/" style="fill-rule:evenodd;clip-rule:evenodd;stroke-linecap:round;stroke-miterlimit:3;">
    <g transform="matrix(1,0,0,1,-2561.96,-5163.14)">
        <g transform="matrix(0.779874,0,0,0.779874,3243.9,1044.67)">
            <path d="M4065.78,5835.31L2430.93,5835.31C1972.15,5835.31 1532.17,6017.56 1207.77,6341.96C883.362,6666.36 701.114,7106.35 701.114,7565.13L701.114,9199.97" style="fill:none;stroke:black;stroke-width:350.62px;"/>
        </g>
        <g transform="matrix(-1,0,0,1,8621.8,-916.994)">
            <path d="M4831.12,9136.49L5328.41,8639.19" style="fill:none;stroke:black;stroke-width:273.44px;"/>
        </g>
        <g transform="matrix(1,0,0,1,1819.88,-532.563)">
            <path d="M1970.8,8752.06L2468.09,8254.76" style="fill:none;stroke:black;stroke-width:273.44px;"/>
        </g>
        <g transform="matrix(-0.779874,0,0,-0.779874,6165.1,13464.4)">
            <path d="M4065.78,5835.31L2430.93,5835.31C1972.15,5835.31 1532.17,6017.56 1207.77,6341.96C883.362,6666.36 701.114,7106.35 701.114,7565.13C701.114,8390.17 701.114,9199.97 701.114,9199.97" style="fill:none;stroke:black;stroke-width:350.62px;"/>
        </g>
        <g transform="matrix(1,0,0,-1,787.205,15426.1)">
            <path d="M4831.12,9136.49L5328.41,8639.19" style="fill:none;stroke:black;stroke-width:273.44px;"/>
        </g>
        <g transform="matrix(-1,0,0,-1,7589.12,15041.6)">
            <path d="M1970.8,8752.06L2468.09,8254.76" style="fill:none;stroke:black;stroke-width:273.44px;"/>
        </g>
    </g>
</svg>
